<?xml version="1.0" standalone="no"?>
<!DOCTYPE svg PUBLIC "-//W3C//DTD SVG 20010904//EN"
 "http://www.w3.org/TR/2001/REC-SVG-20010904/DTD/svg10.dtd">
<svg version="1.0" xmlns="http://www.w3.org/2000/svg"
 width="512.000000pt" height="512.000000pt" viewBox="0 0 512.000000 512.000000"
 preserveAspectRatio="xMidYMid meet">

<g transform="translate(0.000000,512.000000) scale(0.100000,-0.100000)"
fill="#000000" stroke="none">
<path d="M922 4675 c-113 -25 -207 -79 -303 -174 -65 -66 -94 -104 -122 -162
-69 -141 -67 -89 -67 -1355 0 -1103 1 -1143 20 -1218 46 -180 169 -335 330
-413 136 -67 187 -73 588 -73 l348 0 50 -25 c44 -22 75 -57 239 -262 276 -347
312 -381 434 -417 155 -46 324 3 436 126 87 95 361 441 377 476 75 162 -86
347 -253 290 -61 -20 -87 -47 -260 -261 -94 -117 -174 -213 -178 -214 -3 -1
-96 111 -206 248 -110 138 -226 275 -258 304 -69 65 -195 130 -292 150 -54 11
-153 15 -425 15 -322 0 -359 2 -395 19 -52 23 -112 91 -120 133 -3 18 -4 535
-3 1150 l3 1116 30 43 c17 23 50 53 74 66 l44 23 1547 0 1547 0 44 -23 c24
-13 58 -43 74 -66 l30 -43 3 -1121 c2 -744 -1 -1134 -7 -1157 -13 -45 -64 -97
-116 -121 -33 -15 -66 -19 -188 -19 -167 0 -199 -8 -260 -68 -46 -44 -72 -121
-61 -179 15 -79 81 -151 159 -172 60 -16 303 -14 393 5 239 48 431 232 492
470 19 75 20 115 20 1218 0 1266 2 1214 -67 1355 -53 107 -178 233 -284 284
-144 70 -44 67 -1784 66 -1293 0 -1581 -3 -1633 -14z"/>
</g>
</svg>
