<?xml version="1.0" standalone="no"?>
<!DOCTYPE svg PUBLIC "-//W3C//DTD SVG 20010904//EN"
 "http://www.w3.org/TR/2001/REC-SVG-20010904/DTD/svg10.dtd">
<svg version="1.0" xmlns="http://www.w3.org/2000/svg"
 width="512.000000pt" height="512.000000pt" viewBox="0 0 512.000000 512.000000"
 preserveAspectRatio="xMidYMid meet">

<g transform="translate(0.000000,512.000000) scale(0.100000,-0.100000)"
fill="#000000" stroke="none">
<path d="M650 5114 c-186 -27 -325 -98 -446 -227 -111 -118 -172 -241 -194
-393 -5 -38 -10 -270 -10 -515 0 -517 0 -520 80 -600 36 -36 62 -52 105 -64
58 -17 129 -14 168 7 16 8 14 12 -21 38 -23 17 -50 50 -66 81 l-26 53 0 500
c0 561 1 570 70 711 106 218 311 370 545 404 53 8 47 9 -60 8 -66 0 -131 -1
-145 -3z"/>
<path d="M3476 5104 c-70 -22 -140 -94 -161 -169 -38 -129 31 -267 154 -311
22 -8 81 -13 151 -13 95 1 109 3 82 12 -47 15 -117 80 -142 132 -33 68 -26
174 15 241 32 51 113 109 164 117 14 2 -28 4 -94 5 -80 0 -136 -4 -169 -14z"/>
<path d="M4470 4589 c56 -25 86 -53 113 -104 21 -39 22 -52 27 -525 5 -517 3
-495 57 -566 28 -38 104 -80 161 -89 37 -6 142 9 142 21 0 2 -18 21 -41 41
-22 20 -50 55 -62 77 -22 40 -22 52 -27 526 -6 543 -2 516 -80 583 -52 45
-104 57 -232 57 l-103 0 45 -21z"/>
<path d="M2460 2935 c-76 -22 -129 -55 -188 -120 -69 -76 -96 -145 -96 -255 0
-121 27 -185 113 -271 86 -86 150 -113 271 -112 47 0 96 4 109 10 23 9 22 11
-30 40 -69 39 -133 109 -167 181 -23 49 -27 70 -27 152 0 82 4 103 27 152 34
72 98 142 167 181 51 29 53 31 30 39 -45 17 -152 18 -209 3z"/>
<path d="M176 1804 c-68 -22 -140 -95 -160 -165 -23 -76 -23 -903 -1 -1033 26
-147 89 -271 193 -380 150 -155 339 -227 591 -225 l106 1 -70 13 c-233 42
-437 202 -535 419 -58 128 -60 144 -60 692 l0 500 26 53 c16 31 43 64 66 81
36 27 38 29 20 39 -36 19 -124 22 -176 5z"/>
<path d="M4803 1810 c-46 -11 -115 -54 -139 -87 -51 -69 -49 -49 -54 -563 -5
-473 -6 -486 -27 -525 -27 -51 -57 -79 -113 -104 l-45 -21 103 0 c128 0 180
12 232 57 78 67 74 40 80 583 5 474 5 486 27 526 12 22 40 57 62 77 23 20 41
39 41 41 0 6 -88 26 -112 25 -13 -1 -37 -4 -55 -9z"/>
<path d="M3462 495 c-54 -24 -98 -63 -125 -112 -57 -107 -42 -219 42 -303 65
-65 118 -80 270 -79 64 1 104 4 90 6 -51 8 -132 66 -164 117 -41 67 -48 173
-15 241 25 52 95 117 142 132 27 9 12 11 -87 12 -83 0 -130 -4 -153 -14z"/>
</g>
</svg>
