<?xml version="1.0" standalone="no"?>
<!DOCTYPE svg PUBLIC "-//W3C//DTD SVG 20010904//EN"
 "http://www.w3.org/TR/2001/REC-SVG-20010904/DTD/svg10.dtd">
<svg version="1.0" xmlns="http://www.w3.org/2000/svg"
 width="512.000000pt" height="512.000000pt" viewBox="0 0 512.000000 512.000000"
 preserveAspectRatio="xMidYMid meet">

<g transform="translate(0.000000,512.000000) scale(0.100000,-0.100000)"
fill="#000000" stroke="none">
<path d="M3349 5057 c-77 -40 -132 -111 -149 -193 -7 -35 -10 -156 -8 -341 3
-268 4 -291 24 -334 53 -114 144 -170 286 -177 48 -3 88 -8 88 -12 0 -4 -7
-29 -15 -56 -26 -85 -16 -124 29 -124 12 0 88 43 170 94 l148 95 327 3 327 3
59 30 c66 34 125 101 144 165 7 24 11 147 11 351 0 310 -1 315 -24 364 -29 61
-86 117 -146 144 -44 20 -64 21 -627 21 l-581 0 -63 -33z m1237 -86 c47 -22
80 -59 95 -110 6 -23 9 -143 7 -332 l-3 -296 -28 -37 c-56 -73 -43 -70 -422
-76 l-340 -5 -97 -62 c-54 -35 -99 -63 -102 -63 -2 0 0 16 5 35 13 46 4 74
-28 86 -13 5 -74 9 -135 9 -99 0 -116 3 -152 24 -23 13 -51 42 -64 64 -21 39
-22 48 -22 341 0 323 3 344 51 387 61 55 40 53 639 53 519 1 558 -1 596 -18z"/>
<path d="M3682 4624 c-44 -31 -17 -124 37 -124 10 0 30 9 45 21 69 55 -9 154
-82 103z"/>
<path d="M3973 4625 c-27 -19 -33 -46 -18 -82 17 -40 59 -51 94 -25 73 54 -1
159 -76 107z"/>
<path d="M4223 4625 c-27 -19 -33 -46 -18 -82 17 -40 59 -51 94 -25 73 54 -1
159 -76 107z"/>
<path d="M2075 5063 c-254 -54 -472 -224 -585 -457 -59 -121 -80 -215 -87
-389 l-6 -149 -57 -56 c-75 -75 -93 -128 -88 -255 2 -73 8 -102 28 -140 45
-89 137 -152 239 -164 48 -5 48 -6 65 -58 19 -60 67 -155 104 -202 l24 -33
-564 0 c-624 0 -628 0 -710 -63 -27 -21 -55 -56 -75 -96 l-33 -63 0 -982 c0
-1106 -5 -1039 76 -1122 25 -25 66 -55 92 -67 46 -22 55 -22 646 -25 l598 -3
-5 -27 c-3 -15 -17 -107 -33 -204 l-28 -177 -52 -11 c-96 -20 -172 -96 -194
-194 -9 -40 -8 -53 5 -72 l15 -24 823 0 c627 0 826 3 835 12 7 7 12 26 12 44
0 102 -94 215 -192 231 -21 3 -42 11 -46 17 -5 6 -21 90 -36 186 -15 96 -30
185 -33 197 l-5 22 599 3 598 3 57 28 c64 32 111 80 142 146 21 46 21 51 21
1031 l0 985 -28 57 c-32 64 -80 111 -146 142 -45 20 -60 21 -638 24 -326 1
-593 5 -593 8 0 3 10 18 22 34 22 30 22 30 125 30 125 0 123 -2 123 139 l0
101 38 19 c49 25 109 91 135 150 30 67 30 207 -2 276 -26 59 -81 119 -133 146
l-38 19 0 118 c0 258 -73 449 -239 625 -192 203 -501 299 -776 240z m575 -611
c0 -53 42 -197 80 -277 28 -58 54 -96 95 -134 l57 -54 -5 -241 c-4 -244 -8
-272 -49 -368 l-20 -48 -59 0 c-57 0 -61 2 -102 44 -49 51 -96 65 -157 47 -93
-28 -133 -151 -77 -231 59 -85 206 -78 252 11 11 20 23 29 40 29 14 0 25 -4
25 -9 0 -22 -121 -115 -195 -151 -106 -50 -171 -65 -285 -63 -275 4 -516 197
-585 468 -11 44 -15 117 -15 292 l0 233 46 62 c59 79 108 184 125 264 l12 62
206 0 c226 0 366 18 511 65 97 32 100 32 100 -1z m-1110 -639 c0 -104 3 -205
6 -226 l7 -37 -34 6 c-57 10 -120 55 -146 103 -48 91 -23 240 48 293 22 17 92
46 112 48 4 0 7 -84 7 -187z m1501 176 c95 -32 139 -99 139 -214 0 -79 -13
-119 -53 -162 -27 -30 -33 -29 -40 7 -7 34 -43 48 -76 31 -15 -8 -21 -23 -24
-59 -2 -26 -4 55 -5 181 -2 249 -5 237 59 216z m-51 -599 l0 -60 -36 0 c-30 0
-35 3 -29 18 7 16 22 60 31 90 2 6 10 12 19 12 12 0 15 -13 15 -60z m-1131
-361 c23 -18 39 -35 34 -39 -4 -4 -53 -39 -108 -77 -99 -70 -101 -71 -204 -87
-224 -35 -378 -158 -443 -355 -22 -65 -22 -79 -26 -658 l-3 -593 -340 0 -339
0 0 844 c0 573 3 854 11 873 15 40 57 82 104 104 38 17 78 19 656 19 l615 0
43 -31z m2182 -4 c23 -16 52 -48 63 -70 21 -40 21 -50 24 -887 l2 -848 -360 0
-360 0 0 578 c0 626 -2 647 -56 754 -32 63 -119 156 -185 199 -60 38 -139 64
-247 79 -78 12 -86 15 -191 90 l-110 77 42 31 42 31 647 -2 646 -2 43 -30z
m-1956 -100 c107 -33 267 -29 403 11 21 6 22 4 22 -48 0 -53 -3 -58 -121 -226
-66 -95 -123 -172 -127 -172 -4 1 -60 76 -124 169 -117 167 -118 169 -118 225
0 31 3 56 8 56 4 0 30 -7 57 -15z m-35 -320 c71 -101 131 -187 132 -193 3 -12
-79 -75 -92 -70 -13 4 -311 430 -308 439 2 5 32 28 68 53 l65 46 3 -47 c3 -41
18 -66 132 -228z m698 179 c4 -2 -261 -380 -296 -425 l-19 -22 -46 32 c-26 18
-47 35 -47 39 1 4 61 93 135 197 122 172 135 194 135 233 l0 43 68 -47 c37
-26 69 -49 70 -50z m-893 -299 c97 -137 184 -257 193 -265 9 -9 25 -31 35 -50
17 -34 16 -48 -23 -480 -22 -244 -40 -450 -40 -457 0 -10 -34 -13 -145 -13
l-145 0 0 414 c0 364 -2 417 -16 430 -18 19 -38 20 -65 6 -18 -10 -19 -26 -19
-430 l0 -420 -140 0 -140 0 0 590 c0 568 1 593 20 651 47 138 150 248 251 268
24 5 47 8 51 7 4 0 86 -113 183 -251z m1134 229 c156 -35 265 -141 306 -301
12 -47 15 -153 15 -625 l0 -568 -205 0 -205 0 0 413 c0 395 -1 415 -19 431
-11 10 -30 16 -42 14 -47 -6 -49 -26 -49 -455 l0 -403 -140 0 c-77 0 -140 1
-140 3 -1 1 -20 209 -43 462 l-42 460 23 35 c13 19 31 44 41 55 10 11 85 115
166 230 213 302 189 275 233 268 20 -3 66 -11 101 -19z m1131 -1665 c0 -90
-25 -139 -90 -177 l-45 -27 -1675 -3 c-1230 -2 -1689 0 -1728 8 -61 13 -118
57 -138 107 -8 18 -14 62 -14 98 l0 65 1845 0 1845 0 0 -71z m-1386 -486 c15
-98 30 -190 33 -205 l6 -28 -498 0 -497 0 6 27 c3 16 17 102 31 193 14 91 28
171 30 178 3 9 99 12 433 12 l428 0 28 -177z m244 -388 l37 -40 -734 -3 c-404
-1 -736 0 -738 2 -10 9 20 48 50 67 31 19 52 19 690 17 l659 -3 36 -40z"/>
<path d="M1853 4116 c-64 -30 -81 -57 -58 -92 19 -29 43 -30 92 -4 49 26 118
26 161 0 56 -34 92 -21 92 32 0 21 -9 34 -42 55 -35 23 -54 28 -117 31 -64 2
-84 -1 -128 -22z"/>
<path d="M2455 4124 c-72 -39 -91 -76 -57 -107 24 -21 50 -22 74 -1 30 28 107
30 164 5 54 -24 89 -21 99 9 10 33 -3 55 -47 80 -56 31 -187 39 -233 14z"/>
<path d="M1921 3944 c-24 -31 -25 -37 -10 -67 16 -29 28 -37 60 -37 32 0 62
31 62 65 0 62 -74 87 -112 39z"/>
<path d="M2510 3950 c-41 -41 -10 -110 48 -110 36 0 62 28 62 67 0 57 -69 84
-110 43z"/>
<path d="M2250 3880 c-15 -15 -19 -27 -14 -48 4 -15 19 -73 34 -128 l26 -102
-43 -21 c-24 -12 -46 -28 -49 -36 -10 -25 5 -63 27 -70 32 -10 145 49 165 86
14 28 14 35 -4 87 -11 31 -27 91 -37 132 -9 41 -24 85 -31 98 -18 27 -48 28
-74 2z"/>
<path d="M3730 975 l0 -55 55 0 55 0 0 55 0 55 -55 0 -55 0 0 -55z"/>
</g>
</svg>
